<svg xmlns="http://www.w3.org/2000/svg" width="76" height="76" fill="none"><path fill="#FFB400" d="M72.66 7.494h-.417l.311-.311a2.392 2.392 0 0 0 0-3.379l-2.437-2.437a2.392 2.392 0 0 0-3.379 0l-6.126 6.126H3.34A3.344 3.344 0 0 0 0 10.833v46.233a4.087 4.087 0 0 0 4.082 4.082h26.37v7.876h-5.366a2.6 2.6 0 0 0-2.598 2.597v1.113a2.6 2.6 0 0 0 2.598 2.597h25.828a2.6 2.6 0 0 0 2.598-2.597V71.62a2.6 2.6 0 0 0-2.598-2.597H45.55v-7.876h11.896a1.113 1.113 0 1 0 0-2.226H4.082a1.857 1.857 0 0 1-1.855-1.856v-3.295h71.546v3.295a1.857 1.857 0 0 1-1.855 1.856h-9.277a1.113 1.113 0 0 0 0 2.226h9.277A4.087 4.087 0 0 0 76 57.066V10.833a3.344 3.344 0 0 0-3.34-3.34ZM50.914 71.25c.205 0 .371.167.371.371v1.113a.371.371 0 0 1-.37.37h-25.83a.371.371 0 0 1-.37-.37V71.62c0-.204.166-.37.37-.37h25.83ZM32.678 61.148h10.644v7.876H32.678v-7.876ZM68.313 2.942a.163.163 0 0 1 .23 0l2.437 2.436a.163.163 0 0 1 0 .23l-2.326 2.326-2.666-2.667 2.325-2.325Zm-3.9 3.9 2.667 2.666-.777.777-2.666-2.667.776-.777Zm-2.35 2.35 2.666 2.667-13.174 13.174-2.667-2.667L62.062 9.192ZM60.413 19.37a2.75 2.75 0 0 1 2.746 2.747 2.75 2.75 0 0 1-2.746 2.746 2.75 2.75 0 0 1-2.746-2.746c0-.018.002-.035.003-.053l2.691-2.69.052-.003ZM49.622 26.25l-3.295 1.345 1.346-3.295 1.949 1.95Zm24.151 25.296H2.227V10.833c0-.613.499-1.113 1.113-1.113h55.046l-1.698 1.698H18.852a1.113 1.113 0 1 0 0 2.226h35.61l-7.853 7.853a2.375 2.375 0 0 0-.514.778l-2.487 6.088c-.228.56-.1 1.196.327 1.623a1.492 1.492 0 0 0 1.624.327l6.088-2.486c.284-.116.538-.284.758-.497l3.386-3.387a4.978 4.978 0 0 0 4.623 3.146 4.978 4.978 0 0 0 4.973-4.972 4.978 4.978 0 0 0-3.145-4.623l3.85-3.85h3.757v33.977h-.59l-4.034-6.988a1.113 1.113 0 1 0-1.928 1.113l3.391 5.875H51.137l-1.668-2.89 7.776-13.468 3.454 5.984a1.113 1.113 0 1 0 1.928-1.114l-3.685-6.383a1.94 1.94 0 0 0-1.698-.98 1.94 1.94 0 0 0-1.697.98l-7.364 12.755-9.449-16.365a1.94 1.94 0 0 0-1.697-.98 1.94 1.94 0 0 0-1.698.98l-2.51 4.348V18.554a2.6 2.6 0 0 0-2.598-2.597H11.133a2.6 2.6 0 0 0-2.598 2.597v24.344c0 1.023.832 1.856 1.856 1.856h14.202l-1.655 2.867H6.15V13.644h7.505a1.113 1.113 0 1 0 0-2.226H5.78a1.857 1.857 0 0 0-1.856 1.855v34.719c0 1.023.833 1.855 1.856 1.855h64.44a1.858 1.858 0 0 0 1.856-1.855V13.273a1.858 1.858 0 0 0-1.856-1.855H68.32l1.697-1.698h2.644c.614 0 1.113.5 1.113 1.113v40.712ZM30.603 24.72v17.807H10.762V24.72h19.84Zm-19.841-2.227v-3.939c0-.204.166-.371.37-.371h19.1c.204 0 .37.166.37.371v3.94h-19.84Zm16.402 22.26h3.81a1.858 1.858 0 0 0 1.856-1.855V40.54c.278.133.588.206.913.206.76 0 1.44-.394 1.82-1.052l1.895-3.281a.23.23 0 0 1 .208-.12.23.23 0 0 1 .208.12l1.168 2.023a2.08 2.08 0 0 0 1.82 1.051c.76 0 1.441-.393 1.821-1.05l.29-.503 5.593 9.686H25.509l1.655-2.867Zm5.666-7.94V34.94l4.207-7.287 4.65 8.054-.825 1.43-1.06-1.838a2.442 2.442 0 0 0-2.136-1.233c-.892 0-1.69.461-2.137 1.233l-1.787 3.095-.912-1.581Z"/></svg>