<svg xmlns="http://www.w3.org/2000/svg" width="78" height="78" fill="none"><path fill="#FFB400" d="M55.355 72.968h19.358l-4.97-14.91a11.327 11.327 0 0 0-8.655-7.547l-13.282-2.49v-3.074a15.092 15.092 0 0 0 6.08-9.827c2.968-.502 5.243-3.075 5.243-6.184v-8.807C59.129 9.03 50.099 0 38.999 0 27.902 0 18.872 9.03 18.872 20.129v8.806c0 3.107 2.263 5.695 5.227 6.201a15.12 15.12 0 0 0 6.095 9.83v3.056l-13.282 2.49a11.329 11.329 0 0 0-8.656 7.548L3.287 72.968h19.358v-2.516h-3.42l2.124-8.502-2.44-.61-2.279 9.112H6.777l3.866-11.597a8.814 8.814 0 0 1 6.732-5.872l8.014-1.502 2.05 9.22a3.776 3.776 0 0 0-2.278 3.46v10.065A3.779 3.779 0 0 0 28.935 78h20.13a3.779 3.779 0 0 0 3.774-3.774V64.16c0-1.548-.939-2.88-2.276-3.46l2.05-9.22 8.013 1.502a8.816 8.816 0 0 1 6.732 5.872l3.865 11.597h-9.854l-2.278-9.111-2.44.609 2.124 8.502h-3.42v2.516Zm-5.218-21.951L48.4 58.835l-.87-3.48h-5.493l4.931-4.932 3.17.594Zm-3.942 9.37h-14.39l.629-2.516h13.132l.629 2.516ZM39 54.834l-6.29-6.29v-2.121A14.992 14.992 0 0 0 39 47.806a14.99 14.99 0 0 0 6.29-1.39v2.128L39 54.834Zm15.097-22.356v-7.084c1.46.52 2.516 1.905 2.516 3.543 0 1.638-1.056 3.02-2.516 3.541Zm-30.194.017a3.781 3.781 0 0 1-2.516-3.56c0-1.64 1.052-3.039 2.516-3.559v7.119Zm-2.516-8.56V20.13c0-9.712 7.9-17.613 17.613-17.613 9.712 0 17.613 7.9 17.613 17.613v3.807a6.232 6.232 0 0 0-2.557-1.168 3.031 3.031 0 0 0-2.996-2.639c-.8 0-1.582.325-2.21.954a13.818 13.818 0 0 1-7.734 3.92l.08-.161c.21-.42.32-.89.32-1.359v-.317a3.04 3.04 0 0 0-3.037-3.037c-.799 0-1.581.325-2.148.89a14.058 14.058 0 0 1-9.912 4.142v-2.516h-1.258c-1.422 0-2.72.492-3.774 1.29Zm5.032 8.775v-5.033A16.554 16.554 0 0 0 38.11 22.8c.303-.305.89-.057.89.367v.317c0 .08-.018.161-.055.234l-1.98 3.96H39c4.393 0 8.522-1.71 11.69-4.878.304-.305.89-.057.89.367v9.544c0 6.937-5.643 12.58-12.58 12.58s-12.58-5.643-12.58-12.58Zm4.612 17.713 4.932 4.932h-5.494l-.87 3.48-1.737-7.818 3.17-.594Zm-2.096 25.06a1.26 1.26 0 0 1-1.258-1.257V64.16a1.26 1.26 0 0 1 1.258-1.258h3.914a8.773 8.773 0 0 0 0 12.58h-3.914Zm10.065 0a6.297 6.297 0 0 1-6.29-6.29 6.297 6.297 0 0 1 6.29-6.29 6.297 6.297 0 0 1 6.29 6.29 6.297 6.297 0 0 1-6.29 6.29Zm11.322-1.257a1.26 1.26 0 0 1-1.258 1.258h-3.913a8.773 8.773 0 0 0 2.655-6.29 8.773 8.773 0 0 0-2.655-6.29h3.913a1.26 1.26 0 0 1 1.258 1.257v10.065Z"/><path fill="#FFB400" d="M39 65.42a3.779 3.779 0 0 0-3.774 3.774A3.779 3.779 0 0 0 39 72.968a3.779 3.779 0 0 0 3.774-3.774A3.779 3.779 0 0 0 39 65.419Zm0 5.032a1.26 1.26 0 0 1-1.258-1.258A1.26 1.26 0 1 1 39 70.452Z"/></svg>